<svg height="1086" width="720" xmlns="http://www.w3.org/2000/svg">
<rect height="1086" fill="#555" width="720"></rect>
<text fill="#7f7" font-family="Courier New" font-size="12" xml:space="preserve">
<tspan x="10" y="26">4 megabytes installed</tspan>
<tspan x="10" y="42"></tspan>
<tspan x="10" y="58">node_modules</tspan>
<tspan x="10" y="74">└─┬ fs-utils@0.7.0 </tspan>
<tspan x="10" y="90">  ├── async@1.5.2 </tspan>
<tspan x="10" y="106">  ├─┬ delete@0.2.1 </tspan>
<tspan x="10" y="122">  │ ├── bluebird@2.11.0 </tspan>
<tspan x="10" y="138">  │ ├─┬ lazy-cache@0.1.0 </tspan>
<tspan x="10" y="154">  │ │ └─┬ ansi-yellow@0.1.1 </tspan>
<tspan x="10" y="170">  │ │   └── ansi-wrap@0.1.0 </tspan>
<tspan x="10" y="186">  │ └─┬ rimraf@2.6.1 </tspan>
<tspan x="10" y="202">  │   └─┬ glob@7.1.1 </tspan>
<tspan x="10" y="218">  │     └── fs.realpath@1.0.0 </tspan>
<tspan x="10" y="234">  ├─┬ extend-shallow@2.0.1 </tspan>
<tspan x="10" y="250">  │ └── is-extendable@0.1.1 </tspan>
<tspan x="10" y="266">  ├── graceful-fs@4.1.11 </tspan>
<tspan x="10" y="282">  ├─┬ is-absolute@0.2.6 </tspan>
<tspan x="10" y="298">  │ ├─┬ is-relative@0.2.1 </tspan>
<tspan x="10" y="314">  │ │ └─┬ is-unc-path@0.1.2 </tspan>
<tspan x="10" y="330">  │ │   └── unc-path-regex@0.1.2 </tspan>
<tspan x="10" y="346">  │ └── is-windows@0.2.0 </tspan>
<tspan x="10" y="362">  ├─┬ js-yaml@3.8.3 </tspan>
<tspan x="10" y="378">  │ ├─┬ argparse@1.0.9 </tspan>
<tspan x="10" y="394">  │ │ └── sprintf-js@1.0.3 </tspan>
<tspan x="10" y="410">  │ └── esprima@3.1.3 </tspan>
<tspan x="10" y="426">  ├─┬ kind-of@3.1.0 </tspan>
<tspan x="10" y="442">  │ └── is-buffer@1.1.5 </tspan>
<tspan x="10" y="458">  ├── lazy-cache@0.2.7 </tspan>
<tspan x="10" y="474">  ├─┬ matched@0.3.2 </tspan>
<tspan x="10" y="490">  │ ├── async-array-reduce@0.1.0 </tspan>
<tspan x="10" y="506">  │ ├─┬ glob@5.0.15 </tspan>
<tspan x="10" y="522">  │ │ ├─┬ inflight@1.0.6 </tspan>
<tspan x="10" y="538">  │ │ │ └── wrappy@1.0.2 </tspan>
<tspan x="10" y="554">  │ │ ├── inherits@2.0.3 </tspan>
<tspan x="10" y="570">  │ │ ├─┬ minimatch@3.0.3 </tspan>
<tspan x="10" y="586">  │ │ │ └─┬ brace-expansion@1.1.7 </tspan>
<tspan x="10" y="602">  │ │ │   ├── balanced-match@0.4.2 </tspan>
<tspan x="10" y="618">  │ │ │   └── concat-map@0.0.1 </tspan>
<tspan x="10" y="634">  │ │ ├── once@1.4.0 </tspan>
<tspan x="10" y="650">  │ │ └── path-is-absolute@1.0.1 </tspan>
<tspan x="10" y="666">  │ ├── is-valid-glob@0.3.0 </tspan>
<tspan x="10" y="682">  │ └─┬ resolve-dir@0.1.1 </tspan>
<tspan x="10" y="698">  │   ├─┬ expand-tilde@1.2.2 </tspan>
<tspan x="10" y="714">  │   │ └── os-homedir@1.0.2 </tspan>
<tspan x="10" y="730">  │   └─┬ global-modules@0.2.3 </tspan>
<tspan x="10" y="746">  │     └─┬ global-prefix@0.1.5 </tspan>
<tspan x="10" y="762">  │       ├─┬ homedir-polyfill@1.0.1 </tspan>
<tspan x="10" y="778">  │       │ └── parse-passwd@1.0.0 </tspan>
<tspan x="10" y="794">  │       ├── ini@1.3.4 </tspan>
<tspan x="10" y="810">  │       └─┬ which@1.2.14 </tspan>
<tspan x="10" y="826">  │         └── isexe@2.0.0 </tspan>
<tspan x="10" y="842">  ├─┬ normalize-path@2.1.1 </tspan>
<tspan x="10" y="858">  │ └── remove-trailing-separator@1.0.1 </tspan>
<tspan x="10" y="874">  ├── read-data@0.3.0 </tspan>
<tspan x="10" y="890">  ├── read-yaml@1.1.0 </tspan>
<tspan x="10" y="906">  ├─┬ relative@3.0.2 </tspan>
<tspan x="10" y="922">  │ └─┬ isobject@2.1.0 </tspan>
<tspan x="10" y="938">  │   └── isarray@1.0.0 </tspan>
<tspan x="10" y="954">  ├─┬ write@0.2.1 </tspan>
<tspan x="10" y="970">  │ └─┬ mkdirp@0.5.1 </tspan>
<tspan x="10" y="986">  │   └── minimist@0.0.8 </tspan>
<tspan x="10" y="1002">  ├─┬ write-data@0.1.0 </tspan>
<tspan x="10" y="1018">  │ └─┬ extend-shallow@1.1.4 </tspan>
<tspan x="10" y="1034">  │   └── kind-of@1.1.0 </tspan>
<tspan x="10" y="1050">  ├── write-json@0.2.2 </tspan>
<tspan x="10" y="1066">  └── write-yaml@0.2.2</tspan>
</text>
</svg>
